<?xml version="1.0" standalone="no"?>
<!DOCTYPE svg PUBLIC "-//W3C//DTD SVG 20010904//EN"
 "http://www.w3.org/TR/2001/REC-SVG-20010904/DTD/svg10.dtd">
<svg version="1.0" xmlns="http://www.w3.org/2000/svg"
 width="530.000000pt" height="530.000000pt" viewBox="0 0 530.000000 530.000000"
 preserveAspectRatio="xMidYMid meet">

<g transform="translate(0.000000,530.000000) scale(0.100000,-0.100000)"
fill="#000000" stroke="none">
<path d="M2625 4951 c-51 -22 -1952 -1124 -1962 -1138 -10 -13 -13 -262 -13
-1164 l0 -1148 33 -24 c72 -53 1945 -1127 1966 -1127 12 0 36 7 54 16 122 63
1926 1110 1940 1126 16 19 17 89 17 1159 l0 1138 -22 25 c-25 27 -1937 1133
-1971 1141 -12 2 -31 0 -42 -4z m235 -1526 l0 -155 -200 0 -200 0 0 -775 0
-775 -190 0 -190 0 0 775 0 775 -200 0 -200 0 0 155 0 155 590 0 590 0 0 -155z
m720 -35 l0 -190 190 0 190 0 0 -125 0 -125 -190 0 -190 0 0 -190 0 -190 -125
0 -125 0 0 190 0 190 -190 0 -190 0 0 125 0 125 190 0 190 0 0 190 0 190 125
0 125 0 0 -190z"/>
</g>
</svg>
